# xmcd
#
# Track frame offsets: 
#        150
#        13617
#        25975
#        35655
#        47772
#        66155
#        84235
#        97890
#        105620
#        117097
#        145947
#        152890
#        163862
#        178300
#        189567
#        201927
#        219635
#        241430
#        250235
#        270962
#        280100
#        295202
#        309667
#
# Disc length: 4285 seconds
#
# Revision: 30
# Processed by: cddbd v1.5.2PL0 Copyright (c) Steve Scherf et al.
# Submitted via: ExactAudioCopyFreeDBPlugin 1.0
#
DISCID=4e10bb17
DTITLE=Nirvana - With The Lights Out [CD1]
DYEAR=2004
DGENRE=Alternative
TTITLE0=Heartbreaker [Live First Nirvana Show 1987]
TTITLE1=Anorexorcist [Radio Performance 1987]
TTITLE2=White Lace And Strange [Radio Performance 1987]
TTITLE3=Help Me I'm Hungry [Radio Performance 1987]
TTITLE4=Mrs. Butterworth [Rehearsal 1988]
TTITLE5=If You Must [Demo 1988]
TTITLE6=Pen Cap Chew [Demo 1988]
TTITLE7=Downer [Live Tacoma 1988]
TTITLE8=Floyd The Barber [Live Tacoma 1988]
TTITLE9=Moby Dick [Live Tacoma 1988]
TTITLE10=Beans [Solo Home Recordings]
TTITLE11=Don't Want It All [Solo Home Recordings]
TTITLE12=Clean Up Before She Comes [Solo Home Recordings]
TTITLE13=Polly [Solo Home Recordings]
TTITLE14=About A Girl [Solo Home Recordings]
TTITLE15=Blandest [Demo 1988]
TTITLE16=Dive [Demo 1989]
TTITLE17=They Hung Him On A Cross [Demo 1989]
TTITLE18=Grey Goose [Demo 1989]
TTITLE19=Ain't It A Shame [Demo 1989]
TTITLE20=Token Eastern Song [Demo 1989]
TTITLE21=Even In His Youth [Demo 1989]
TTITLE22=Polly [Demo 1989]
EXTD=YEAR: 2004
EXTT0=
EXTT1=
EXTT2=
EXTT3=
EXTT4=
EXTT5=
EXTT6=
EXTT7=
EXTT8=
EXTT9=
EXTT10=
EXTT11=
EXTT12=
EXTT13=
EXTT14=
EXTT15=
EXTT16=
EXTT17=
EXTT18=
EXTT19=
EXTT20=
EXTT21=
EXTT22=
PLAYORDER=
